<?xml version="1.0" standalone="no"?>
<!DOCTYPE svg PUBLIC "-//W3C//DTD SVG 20010904//EN"
 "http://www.w3.org/TR/2001/REC-SVG-20010904/DTD/svg10.dtd">
<svg version="1.0" xmlns="http://www.w3.org/2000/svg"
 width="70px" height="70px" viewBox="0 0 4000.000000 4000.000000"
 preserveAspectRatio="xMidYMid meet">

<g transform="translate(0.000000,4000.000000) scale(0.100000,-0.100000)"
fill="#000000" stroke="none">
<path d="M12217 37805 c-402 -617 -678 -1324 -786 -2010 -38 -243 -46 -364
-46 -670 0 -315 8 -430 51 -695 71 -443 177 -801 474 -1595 250 -667 324
-1019 291 -1392 -6 -76 -16 -190 -22 -253 -36 -411 -172 -837 -387 -1210 -78
-135 -139 -224 -270 -393 -63 -82 -111 -152 -106 -156 5 -5 196 -154 424 -331
228 -178 432 -336 452 -352 l36 -28 104 132 c267 342 447 641 596 993 201 471
289 863 337 1485 45 590 -46 1070 -362 1920 -270 724 -357 1011 -412 1350 -57
352 -56 726 4 1070 88 506 308 1052 605 1500 31 47 60 90 63 97 8 13 -5 22
-569 405 l-391 264 -86 -131z"/>
<path d="M18408 37812 c-584 -895 -889 -1944 -839 -2879 32 -581 141 -1050
426 -1823 48 -129 116 -314 151 -410 171 -463 244 -784 244 -1071 0 -164 -23
-478 -46 -619 -82 -518 -294 -989 -647 -1439 -53 -68 -97 -127 -97 -131 0 -7
871 -692 905 -712 15 -9 220 254 342 437 354 530 591 1160 667 1775 44 355 57
757 31 980 -48 416 -130 721 -365 1355 -290 781 -374 1072 -426 1480 -22 171
-24 526 -5 695 67 588 315 1248 663 1763 22 32 38 62 36 67 -3 10 -946 650
-956 650 -4 0 -41 -53 -84 -118z"/>
<path d="M24885 37846 c-61 -80 -254 -417 -344 -601 -365 -743 -539 -1494
-518 -2235 18 -619 138 -1129 477 -2035 239 -639 311 -894 340 -1195 12 -124
11 -198 -10 -485 -27 -379 -103 -688 -251 -1026 -109 -248 -228 -443 -423
-692 -60 -76 -105 -142 -100 -146 41 -36 916 -712 918 -710 1 2 48 63 103 134
498 642 777 1286 887 2045 30 206 58 645 52 800 -21 475 -114 860 -381 1575
-267 716 -358 1020 -415 1400 -27 177 -38 546 -21 720 33 338 116 677 254
1030 70 179 228 492 332 658 48 77 83 142 79 147 -5 4 -200 137 -434 295 -234
158 -446 303 -472 321 l-47 34 -26 -34z"/>
<path d="M6934 25445 c-2 -5 -3 -2489 -1 -5520 3 -4034 6 -5550 15 -5660 26
-335 45 -540 68 -735 265 -2218 1181 -4320 2633 -6040 288 -341 821 -890 1106
-1139 816 -714 1766 -1120 2860 -1223 113 -11 1045 -13 4920 -13 5279 0 4859
-5 5264 60 785 127 1515 435 2156 910 458 339 1105 992 1620 1635 534 667 973
1358 1357 2135 l139 281 97 18 c666 123 1451 361 2152 654 1306 545 2566 1373
3529 2317 1274 1250 2014 2714 2150 4250 37 413 36 640 -4 1065 -153 1598
-949 3047 -2170 3946 -1262 929 -2866 1235 -4435 844 -85 -21 -183 -48 -217
-58 l-63 -20 -2 1149 -3 1149 -11584 3 c-7715 1 -11585 -1 -11587 -8z m22008
-2626 l3 -1471 520 259 c286 142 579 282 650 310 1357 532 2820 373 3950 -431
996 -707 1630 -1840 1767 -3156 17 -164 17 -705 0 -870 -55 -531 -182 -1009
-407 -1535 -72 -169 -225 -459 -350 -665 -538 -887 -1352 -1694 -2445 -2425
-1274 -853 -2631 -1381 -4135 -1610 -132 -20 -243 -40 -247 -43 -3 -4 -42 -92
-86 -197 -159 -380 -349 -773 -526 -1088 -558 -995 -1277 -1899 -2101 -2647
-375 -340 -853 -619 -1333 -776 -243 -80 -464 -130 -792 -176 -105 -15 -9497
-22 -9675 -7 -851 70 -1617 405 -2265 990 -451 407 -976 990 -1351 1499 -727
987 -1287 2123 -1619 3283 -202 707 -316 1366 -382 2212 -8 110 -12 1453 -15
5083 l-4 4932 10420 0 10421 0 2 -1471z"/>
<path d="M31000 20680 c-503 -45 -977 -211 -1400 -487 -133 -87 -171 -116
-455 -352 l-210 -174 -6 -2401 c-4 -1752 -9 -2440 -18 -2546 -24 -288 -63
-600 -103 -830 -49 -278 -57 -396 -32 -490 67 -255 294 -430 559 -430 82 0
114 6 247 44 790 230 1573 607 2268 1094 905 633 1513 1309 1899 2112 153 320
256 654 312 1015 26 166 37 559 20 731 -47 474 -179 905 -395 1287 -436 774
-1161 1277 -2022 1407 -158 24 -507 34 -664 20z m471 -1104 c711 -95 1272
-625 1458 -1376 198 -801 -85 -1648 -813 -2430 -504 -541 -1356 -1123 -2101
-1434 l-37 -16 6 63 c38 354 39 396 43 2609 l4 2157 82 62 c387 289 897 426
1358 365z"/>
<path d="M7880 2640 l0 -590 10768 0 c5923 0 10771 2 10773 4 2 2 3 268 1 590
l-2 586 -10770 0 -10770 0 0 -590z"/>
</g>
</svg>
